<svg xmlns="http://www.w3.org/2000/svg" xmlns:xlink="http://www.w3.org/1999/xlink" width="778" height="778" viewBox="0 0 778 778">
  <defs>
    <clipPath id="clip-path">
      <rect id="Rectangle_1" data-name="Rectangle 1" width="778" height="778" transform="translate(571 151)" fill="#fff" stroke="#707070" stroke-width="1"/>
    </clipPath>
  </defs>
  <g id="Mask_Group_1" data-name="Mask Group 1" transform="translate(-571 -151)" clip-path="url(#clip-path)">
    <g id="noun_medical_3203306" transform="translate(585.204 155.044)">
      <g id="Group_1" data-name="Group 1" transform="translate(18.296 27.055)">
        <path id="Path_1" data-name="Path 1" d="M667.081,237.323c-23.05-14.6-52.247-7.683-67.614,14.6L545.683,332.6c-12.293-2.305-26.124,1.537-36.112,9.988L402,436.324a88.428,88.428,0,0,0-28.429,52.247l-14.6,99.116v94.506a16.229,16.229,0,0,0,16.135,16.135H506.5a16.229,16.229,0,0,0,16.135-16.135V600.749L601,540.05C627.9,519.3,646.336,489.339,654.019,456.3l36.112-165.962C693.2,269.593,684.753,248.08,667.081,237.323Zm-177.487,429.5H389.709V608.432h99.885ZM657.861,282.655,621.749,448.617c-5.378,26.124-20.745,49.174-41.491,66.077L500.351,576.93H392.014l12.293-82.981c2.305-13.062,8.452-24.587,18.44-33.039L531.084,366.4a12.735,12.735,0,0,1,16.135,0c4.61,3.842,5.378,10.757,2.305,16.135l-19.208,30.734a176.447,176.447,0,0,1-26.892,32.27L473.458,473.2c-6.147,6.147-6.915,16.135-.768,22.282s16.135,6.915,22.282.768l29.965-27.66a219.462,219.462,0,0,0,32.27-38.417l19.208-30.734c9.989-16.135,8.452-36.88-3.073-50.711l52.247-79.139a17.56,17.56,0,0,1,24.587-5.378C656.324,268.057,660.166,275.74,657.861,282.655Z" transform="translate(40.707 6.242)"/>
        <path id="Path_2" data-name="Path 2" d="M333.183,489.291c-3.073-19.977-13.062-39.185-28.429-52.247L196.418,342.538a43.928,43.928,0,0,0-36.112-9.988l-53.784-80.676c-14.6-22.282-44.564-28.429-67.614-14.6-17.672,10.757-26.124,32.27-22.282,52.247L52.738,455.484c6.915,33.039,26.124,63,53.016,83.749l78.371,60.7v82.213a16.229,16.229,0,0,0,16.135,16.135H331.646a16.229,16.229,0,0,0,16.135-16.135V585.334ZM126.5,514.647c-20.745-16.135-36.112-39.954-41.491-66.077L48.9,282.607a17.691,17.691,0,0,1,32.27-13.062l52.247,79.139a43.935,43.935,0,0,0-3.073,50.711l19.209,30.734a194.585,194.585,0,0,0,32.27,38.417l29.965,27.66c6.147,6.147,16.135,5.378,22.282-.768s5.378-16.135-.768-22.282L203.333,445.5a158,158,0,0,1-26.892-32.27l-19.209-30.734c-3.073-5.378-2.305-12.293,2.305-16.135a12.735,12.735,0,0,1,16.135,0l108.336,94.506c9.988,8.452,16.135,20.745,18.44,33.039l12.293,82.981H206.406ZM316.279,666.778H216.395V608.384h99.885Z" transform="translate(-15.713 6.29)"/>
        <path id="Path_3" data-name="Path 3" d="M551.772,222.214c0-107.568-86.823-195.159-194.391-195.159S162.991,114.646,162.991,222.214A194.124,194.124,0,0,0,357.381,416.6C464.949,416.6,551.772,329.014,551.772,222.214ZM357.381,384.334c-89.9,0-162.889-72.993-162.889-162.889s72.993-162.12,162.889-162.12S520.27,132.318,520.27,222.214,447.277,384.334,357.381,384.334Z" transform="translate(8.494 -27.055)"/>
        <path id="Path_4" data-name="Path 4" d="M382.006,101.622H308.245a10.171,10.171,0,0,0-9.988,9.988v50.711H247.546a10.171,10.171,0,0,0-9.988,9.988V246.07a10.171,10.171,0,0,0,9.988,9.988h50.711v50.711a10.171,10.171,0,0,0,9.988,9.988h73.761a10.171,10.171,0,0,0,9.988-9.988V256.059H442.7a10.171,10.171,0,0,0,9.988-9.988V172.309a10.171,10.171,0,0,0-9.988-9.988H391.994V111.61A10.171,10.171,0,0,0,382.006,101.622Zm42.259,89.9V227.63h-60.7v60.7H327.453v-60.7h-60.7V191.518h60.7v-60.7h36.112v60.7h60.7Z" transform="translate(20.75 -14.799)"/>
      </g>
      <text id="Created_by_Adrien_Coquet" data-name="Created by Adrien Coquet" transform="translate(0 878.216)" font-size="38" font-family="Arial-BoldMT, Arial" font-weight="700"><tspan x="0" y="0">Created by Adrien Coquet</tspan></text>
      <text id="from_the_Noun_Project" data-name="from the Noun Project" transform="translate(0 916.633)" font-size="38" font-family="Arial-BoldMT, Arial" font-weight="700"><tspan x="0" y="0">from the Noun Project</tspan></text>
    </g>
  </g>
</svg>
